<?xml version="1.0" encoding="UTF-8"?>
<!DOCTYPE svg PUBLIC "-//W3C//DTD SVG 1.1//EN" "http://www.w3.org/Graphics/SVG/1.1/DTD/svg11.dtd">
<svg xmlns="http://www.w3.org/2000/svg" version="1.1" width="128px" height="128px" style="shape-rendering:geometricPrecision; text-rendering:geometricPrecision; image-rendering:optimizeQuality; fill-rule:evenodd; clip-rule:evenodd" xmlns:xlink="http://www.w3.org/1999/xlink">
<g><path style="opacity:0.897" fill="#070402" d="M 65.5,5.5 C 67.2338,8.39202 69.5671,10.892 72.5,13C 70.8686,14.9262 69.0353,16.7596 67,18.5C 64.0861,24.7812 65.2527,26.2812 70.5,23C 71.6217,20.8762 73.1217,19.0429 75,17.5C 76.5737,18.9842 77.907,20.6508 79,22.5C 81.1851,20.4598 83.6851,19.1264 86.5,18.5C 86.5,20.5 86.5,22.5 86.5,24.5C 94.538,24.1015 101.038,27.1015 106,33.5C 115.316,46.4043 116.649,60.071 110,74.5C 103.333,86.5 96.6667,98.5 90,110.5C 80.4643,125.286 66.9643,130.452 49.5,126C 40.4014,124.034 33.2347,119.2 28,111.5C 19.7468,97.9955 13.4135,83.6621 9,68.5C 7.24307,55.1022 11.4097,43.9355 21.5,35C 24.6478,33.3953 27.9811,32.3953 31.5,32C 30.6634,30.9887 30.33,29.8221 30.5,28.5C 33.6927,29.0112 36.8594,29.6778 40,30.5C 41.1667,30.1667 42.3333,29.8333 43.5,29.5C 42.5614,25.2351 42.2281,20.9017 42.5,16.5C 45.3882,16.2196 46.8882,17.5529 47,20.5C 49.0673,23.07 51.5673,25.07 54.5,26.5C 54.6014,17.4599 58.2681,10.4599 65.5,5.5 Z"/></g>
<g><path style="opacity:1" fill="#2fa973" d="M 63.5,10.5 C 65.1958,10.6854 66.5291,11.5187 67.5,13C 65.3834,14.7309 63.8834,16.8976 63,19.5C 62.6354,24.6718 62.4687,29.6718 62.5,34.5C 56.8806,26.2295 57.2139,18.2295 63.5,10.5 Z"/></g>
<g><path style="opacity:1" fill="#30ad76" d="M 45.5,24.5 C 48.6809,26.8373 52.0142,29.004 55.5,31C 54.3284,31.3534 53.1618,31.1868 52,30.5C 50.1739,31.0104 50.0072,31.8438 51.5,33C 53.8045,33.8952 56.1378,34.7285 58.5,35.5C 54.455,36.1464 50.455,36.4797 46.5,36.5C 50.3045,39.4961 54.4712,40.1628 59,38.5C 59.1998,41.284 58.3665,43.784 56.5,46C 56.8333,46.5 57.1667,47 57.5,47.5C 60.9176,45.1156 62.7509,41.7823 63,37.5C 63.4379,40.376 64.4379,43.0427 66,45.5C 67.1827,46.731 68.3493,46.731 69.5,45.5C 67.1262,42.9717 66.1262,39.9717 66.5,36.5C 70.1823,36.4093 73.349,35.076 76,32.5C 76.5908,31.5165 76.2575,30.8499 75,30.5C 73.5659,30.9304 72.3992,31.7638 71.5,33C 66.6382,34.5845 64.9715,33.0845 66.5,28.5C 69.1879,27.9951 71.3546,26.6618 73,24.5C 75.6628,26.7127 78.4961,26.7127 81.5,24.5C 81.8333,24.8333 82.1667,25.1667 82.5,25.5C 77.7855,31.6599 79.4521,34.4933 87.5,34C 86.8095,35.0674 86.3095,36.2341 86,37.5C 83.7045,39.0569 81.5378,40.7236 79.5,42.5C 80.6053,43.8924 81.9386,45.059 83.5,46C 79.5345,47.1579 75.5345,47.6579 71.5,47.5C 72.6668,50.1999 72.5001,52.8665 71,55.5C 69.654,52.8207 67.654,50.8207 65,49.5C 64.228,49.6448 63.5613,49.9781 63,50.5C 61.4519,58.8197 59.7852,59.1531 58,51.5C 57.2753,50.9415 56.4419,50.6082 55.5,50.5C 53.0819,52.2321 50.4152,53.5654 47.5,54.5C 46.4949,53.8902 46.6615,53.2236 48,52.5C 48.4955,50.5273 48.6621,48.5273 48.5,46.5C 43.8215,46.6658 39.1548,46.4992 34.5,46C 36.5,45 38.5,44 40.5,43C 41.0585,42.2753 41.3918,41.4419 41.5,40.5C 39.863,38.5248 38.1964,36.5248 36.5,34.5C 40.3839,34.0062 44.0505,33.0062 47.5,31.5C 46.4229,29.2706 45.7563,26.9372 45.5,24.5 Z"/></g>
<g><path style="opacity:1" fill="#eb4722" d="M 84.5,27.5 C 96.8807,27.2008 104.881,33.0342 108.5,45C 107.002,48.1778 107.502,51.0112 110,53.5C 111.093,60.4727 110.093,67.1393 107,73.5C 105.667,74.1667 104.333,74.8333 103,75.5C 102.294,83.6877 98.7938,90.3543 92.5,95.5C 89.9793,104.871 85.1459,112.871 78,119.5C 77.9736,116.895 76.807,115.729 74.5,116C 72.771,117.789 72.1043,119.956 72.5,122.5C 69.5448,123.159 66.5448,123.492 63.5,123.5C 63.7529,121.173 63.0863,119.173 61.5,117.5C 59.3432,118.966 59.0099,120.8 60.5,123C 57.1667,123.667 53.8333,123.667 50.5,123C 49.7734,121.601 49.2734,120.101 49,118.5C 47.9887,117.663 46.8221,117.33 45.5,117.5C 45.762,118.978 45.4287,120.311 44.5,121.5C 37.5251,117.692 32.0251,112.358 28,105.5C 26.1667,101.833 24.3333,98.1667 22.5,94.5C 25.1905,94.4367 26.0239,92.7701 25,89.5C 22.9616,84.3948 21.295,84.3948 20,89.5C 12.9031,78.3509 10.5698,66.3509 13,53.5C 14.7613,46.9646 18.2613,41.6313 23.5,37.5C 23.5633,40.1905 25.2299,41.0239 28.5,40C 30.3937,38.9207 30.727,37.5874 29.5,36C 30.3333,35.8333 31.1667,35.6667 32,35.5C 34.4248,36.9163 36.5915,38.7496 38.5,41C 36.0427,42.5621 33.376,43.5621 30.5,44C 29.269,45.1827 29.269,46.3493 30.5,47.5C 35.8485,49.3645 41.1819,50.0312 46.5,49.5C 44.6565,51.9823 43.3231,54.649 42.5,57.5C 47.2912,57.5538 51.6245,56.2204 55.5,53.5C 57.9198,57.5532 59.2532,61.8865 59.5,66.5C 60.8221,66.67 61.9887,66.3366 63,65.5C 63.6256,63.2865 63.4589,61.1199 62.5,59C 64.0612,52.1135 66.3945,51.7801 69.5,58C 70.7839,58.6838 71.9505,58.5171 73,57.5C 74.2525,54.9865 74.7525,52.3198 74.5,49.5C 77.909,49.7507 81.2423,49.4173 84.5,48.5C 85.0045,51.3418 86.6711,52.6751 89.5,52.5C 89.4139,50.323 88.7472,48.323 87.5,46.5C 87.7093,45.914 88.0426,45.414 88.5,45C 87.1667,44 85.8333,43 84.5,42C 89.2103,39.0333 90.877,34.8666 89.5,29.5C 87.677,30.7472 85.677,31.4139 83.5,31.5C 83.4326,30.0413 83.7659,28.7079 84.5,27.5 Z"/></g>
<g><path style="opacity:1" fill="#110401" d="M 95.5,39.5 C 99.2904,40.2909 101.29,42.6242 101.5,46.5C 97.3617,46.0268 95.3617,43.6935 95.5,39.5 Z"/></g>
<g><path style="opacity:1" fill="#080200" d="M 20.5,49.5 C 21.5,49.5 22.5,49.5 23.5,49.5C 23.756,51.9124 22.756,53.5791 20.5,54.5C 19.3336,52.8327 19.3336,51.166 20.5,49.5 Z"/></g>
<g><path style="opacity:1" fill="#130502" d="M 31.5,54.5 C 34.0103,56.8961 33.677,59.2294 30.5,61.5C 29.1544,58.9004 29.4877,56.5671 31.5,54.5 Z"/></g>
<g><path style="opacity:1" fill="#150602" d="M 98.5,59.5 C 102.139,60.1118 103.139,62.1118 101.5,65.5C 100.675,66.3857 99.675,66.719 98.5,66.5C 98.5,64.1667 98.5,61.8333 98.5,59.5 Z"/></g>
<g><path style="opacity:1" fill="#040000" d="M 84.5,63.5 C 85.8333,63.5 87.1667,63.5 88.5,63.5C 88.9807,67.3491 87.314,69.3491 83.5,69.5C 83.5172,67.4352 83.8505,65.4352 84.5,63.5 Z"/></g>
<g><path style="opacity:1" fill="#190903" d="M 44.5,65.5 C 48.9195,66.0898 49.5862,68.0898 46.5,71.5C 44.7175,69.9775 44.0508,67.9775 44.5,65.5 Z"/></g>
<g><path style="opacity:1" fill="#140502" d="M 72.5,66.5 C 75.068,68.6688 75.068,71.0021 72.5,73.5C 69.9617,71.2599 69.9617,68.9265 72.5,66.5 Z"/></g>
<g><path style="opacity:1" fill="#170702" d="M 17.5,68.5 C 21.6327,69.5602 22.2993,71.5602 19.5,74.5C 17.7175,72.9775 17.0508,70.9775 17.5,68.5 Z"/></g>
<g><path style="opacity:1" fill="#1a0903" d="M 27.5,73.5 C 31.4735,74.0755 32.4735,76.2421 30.5,80C 26.6314,79.4919 25.6314,77.3252 27.5,73.5 Z"/></g>
<g><path style="opacity:1" fill="#170802" d="M 91.5,78.5 C 94.4492,82.0815 93.7825,85.0815 89.5,87.5C 88.2801,87.1131 87.6135,86.2798 87.5,85C 88.25,82.4288 89.5833,80.2622 91.5,78.5 Z"/></g>
<g><path style="opacity:1" fill="#0f0301" d="M 58.5,80.5 C 59.8333,80.5 61.1667,80.5 62.5,80.5C 63.0934,83.5959 62.0934,85.9292 59.5,87.5C 58.5258,85.2573 58.1924,82.924 58.5,80.5 Z"/></g>
<g><path style="opacity:1" fill="#0f0401" d="M 45.5,84.5 C 46.4959,84.4142 47.3292,84.7476 48,85.5C 48.4935,87.1341 48.6602,88.8008 48.5,90.5C 44.5564,90.1156 43.5564,88.1156 45.5,84.5 Z"/></g>
<g><path style="opacity:1" fill="#0f0401" d="M 74.5,87.5 C 75.5,87.5 76.5,87.5 77.5,87.5C 77.6621,89.5273 77.4955,91.5273 77,93.5C 74.5237,95.0628 73.0237,94.3962 72.5,91.5C 72.7517,89.9271 73.4183,88.5938 74.5,87.5 Z"/></g>
<g><path style="opacity:1" fill="#000000" d="M 30.5,98.5 C 34.3948,98.8573 35.3948,100.857 33.5,104.5C 31.0217,103.278 30.0217,101.278 30.5,98.5 Z"/></g>
<g><path style="opacity:1" fill="#0d0201" d="M 79.5,99.5 C 80.8333,99.5 82.1667,99.5 83.5,99.5C 83.9321,102.982 82.5988,105.315 79.5,106.5C 78.8333,106.167 78.1667,105.833 77.5,105.5C 78.1717,103.47 78.8384,101.47 79.5,99.5 Z"/></g>
<g><path style="opacity:1" fill="#080100" d="M 50.5,101.5 C 52.1439,101.286 53.6439,101.62 55,102.5C 55.8513,105.053 55.518,107.386 54,109.5C 51.0561,107.628 49.8895,104.961 50.5,101.5 Z"/></g>
<g><path style="opacity:1" fill="#140602" d="M 65.5,103.5 C 69.2739,103.484 70.2739,105.15 68.5,108.5C 67.675,109.386 66.675,109.719 65.5,109.5C 65.5,107.5 65.5,105.5 65.5,103.5 Z"/></g>
</svg>
